P2
# Created by GIMP version 2.10.34 PNM plug-in
30 30
255
255
255
255
255
255
255
255
255
255
255
255
255
255
255
255
255
255
255
255
255
255
255
255
255
255
255
255
255
255
255
255
255
255
255
255
255
255
255
255
255
255
255
255
255
255
255
255
255
255
255
255
255
255
255
255
255
255
255
255
255
255
255
255
255
255
255
255
255
255
255
255
255
255
255
255
255
255
255
255
255
255
255
255
255
255
255
255
255
255
255
255
255
255
255
255
255
255
255
255
255
255
255
255
255
255
255
255
255
255
255
255
255
255
255
255
255
255
255
255
255
255
255
255
255
255
255
255
255
255
255
255
254
253
253
254
255
255
255
255
255
255
255
255
255
255
255
255
255
255
255
255
255
255
255
255
255
255
255
130
133
156
174
179
171
155
131
81
255
255
255
255
255
255
255
255
255
255
255
255
255
255
255
255
255
255
255
255
130
130
130
134
144
146
131
99
60
46
0
0
255
255
255
255
255
255
255
255
255
255
255
255
255
255
255
255
255
130
130
130
131
150
178
180
173
136
87
8
0
0
0
255
255
255
255
255
255
255
255
255
255
255
255
255
255
255
255
130
130
130
130
254
246
244
240
242
68
2
0
0
0
0
255
255
255
255
255
255
255
255
255
255
255
255
255
255
255
130
130
130
255
255
255
255
255
255
255
255
0
0
7
81
129
240
255
255
255
255
255
255
255
255
255
255
255
255
130
130
130
130
255
255
255
255
255
255
255
255
255
0
23
60
115
153
254
255
255
255
255
255
255
255
255
255
255
255
130
130
130
130
255
255
255
255
255
255
255
255
255
0
65
67
100
154
252
255
255
255
255
255
255
255
255
255
255
255
157
134
149
255
255
255
255
255
255
255
255
255
255
255
103
109
104
158
252
255
255
255
255
255
255
255
255
255
255
254
178
146
177
255
255
255
255
255
255
255
255
255
255
255
221
109
101
161
254
255
255
255
255
255
255
255
255
255
255
254
192
162
191
255
255
255
255
255
255
255
255
255
255
255
100
97
97
158
255
255
255
255
255
255
255
255
255
255
255
254
199
174
198
253
255
255
255
255
255
255
255
255
255
255
78
61
84
146
255
255
255
255
255
255
255
255
255
255
255
255
207
185
198
250
255
255
255
255
255
255
255
255
255
37
59
46
97
130
255
255
255
255
255
255
255
255
255
255
255
255
205
186
190
186
255
255
255
255
255
255
255
255
37
37
37
59
86
251
255
255
255
255
255
255
255
255
255
255
255
255
197
183
182
182
182
255
255
255
255
255
255
37
37
37
37
37
255
255
255
255
255
255
255
255
255
255
255
255
255
255
186
183
182
182
182
182
255
255
250
241
78
38
37
37
37
255
255
255
255
255
255
255
255
255
255
255
255
255
255
255
255
182
182
182
182
185
197
203
187
145
92
39
37
37
37
255
255
255
255
255
255
255
255
255
255
255
255
255
255
255
255
255
182
182
182
183
186
179
156
116
73
61
37
37
255
255
255
255
255
255
255
255
255
255
255
255
255
255
255
255
255
255
255
182
182
190
204
204
188
164
124
89
255
255
255
255
255
255
255
255
255
255
255
255
255
255
255
255
255
255
255
255
255
255
255
255
254
252
252
252
255
255
255
255
255
255
255
255
255
255
255
255
255
255
255
255
255
255
255
255
255
255
255
255
255
255
255
255
255
255
255
255
255
255
255
255
255
255
255
255
255
255
255
255
255
255
255
255
255
255
255
255
255
255
255
255
255
255
255
255
255
255
255
255
255
255
255
255
255
255
255
255
255
255
255
255
255
255
255
255
255
255
255
255
255
255
255
255
255
255
255
255
255
255
255
255
255
255
255
255
255
255
255
255
255
255
255
255
255
255
255
255
255
255
255
255
255
255
255
255
255
255
255
255
255
255
255
255
255
255
255
255
255
255
255
255
255
255
255
255
255
255
255
255
255
255
255
255
255
255
255
255
255
255
255
255
255
255
255
255
255
255
255
255
255
255
255
255
255
255
255
255
255
255
255
255
255
255
255
255
255
255
255
255
255
255
255
255
255
255
255
255
255
255
255
