P1
# Created by GIMP version 2.10.34 PNM plug-in
30 30
0000000000000000000000000000000000000000000000000000000000000000000000
0000000000000000000000000000000000000000000000000000000000000000000000
0000000000000000000011111111100000000000000000001111111111110000000000
0000000111111111111110000000000000001111110000011111000000000000001111
1000000011110000000000000111110000000001110000000000000111100000000001
1100000000000001110000000000011100000000000001110000000000011100000000
0000011100000000000111000000000000011100000000000111000000000000111100
0000000011110000000000001111000000000011110000000000001111000000001111
1100000000000011111000001111111000000000000001111111111111110000000000
0000011111111111111000000000000000001111111111100000000000000000000000
0000000000000000000000000000000000000000000000000000000000000000000000
0000000000000000000000000000000000000000000000000000000000000000000000
000000000000000000000000000000000000000000000000000000000000